<svg width="1229" height="219" viewBox="0 0 1229 219" fill="none" xmlns="http://www.w3.org/2000/svg">
<g clip-path="url(#clip0_4315_42)">
<path d="M329.673 51.8979C328.971 51.4901 327.694 51.2862 325.824 51.2862H324.023L323.221 57.8013H324.636C326.714 57.8013 328.189 57.5974 329.05 57.1896C330.247 56.6265 330.851 55.5875 330.851 54.0826C330.861 53.1213 330.465 52.3931 329.673 51.8979ZM329.673 51.8979C328.971 51.4901 327.694 51.2862 325.824 51.2862H324.023L323.221 57.8013H324.636C326.714 57.8013 328.189 57.5974 329.05 57.1896C330.247 56.6265 330.851 55.5875 330.851 54.0826C330.861 53.1213 330.465 52.3931 329.673 51.8979ZM175.856 103.785C174.441 102.29 172.709 101.533 170.631 101.533C168.365 101.533 166.425 102.368 164.832 104.028C163.238 105.688 162.437 107.698 162.437 110.058C162.437 112.339 163.14 114.213 164.525 115.699C165.901 117.185 167.642 117.913 169.76 117.913C172.125 117.913 174.075 117.087 175.629 115.447C177.182 113.815 177.954 111.747 177.954 109.262C177.964 107.116 177.261 105.281 175.856 103.785ZM329.673 51.8979C328.971 51.4901 327.694 51.2862 325.824 51.2862H324.023L323.221 57.8013H324.636C326.714 57.8013 328.189 57.5974 329.05 57.1896C330.247 56.6265 330.851 55.5875 330.851 54.0826C330.861 53.1213 330.465 52.3931 329.673 51.8979ZM329.673 51.8979C328.971 51.4901 327.694 51.2862 325.824 51.2862H324.023L323.221 57.8013H324.636C326.714 57.8013 328.189 57.5974 329.05 57.1896C330.247 56.6265 330.851 55.5875 330.851 54.0826C330.861 53.1213 330.465 52.3931 329.673 51.8979ZM175.856 103.785C174.441 102.29 172.709 101.533 170.631 101.533C168.365 101.533 166.425 102.368 164.832 104.028C163.238 105.688 162.437 107.698 162.437 110.058C162.437 112.339 163.14 114.213 164.525 115.699C165.901 117.185 167.642 117.913 169.76 117.913C172.125 117.913 174.075 117.087 175.629 115.447C177.182 113.815 177.954 111.747 177.954 109.262C177.964 107.116 177.261 105.281 175.856 103.785ZM175.856 103.785C174.441 102.29 172.709 101.533 170.631 101.533C168.365 101.533 166.425 102.368 164.832 104.028C163.238 105.688 162.437 107.698 162.437 110.058C162.437 112.339 163.14 114.213 164.525 115.699C165.901 117.185 167.642 117.913 169.76 117.913C172.125 117.913 174.075 117.087 175.629 115.447C177.182 113.815 177.954 111.747 177.954 109.262C177.964 107.116 177.261 105.281 175.856 103.785ZM329.634 100.368C328.951 99.8822 327.763 99.6395 326.061 99.6395H324.517L323.577 107.193H324.943C328.753 107.193 330.653 105.747 330.653 102.863C330.653 101.688 330.307 100.853 329.634 100.368ZM329.673 51.8979C328.971 51.4901 327.694 51.2862 325.824 51.2862H324.023L323.221 57.8013H324.636C326.714 57.8013 328.189 57.5974 329.05 57.1896C330.247 56.6265 330.851 55.5875 330.851 54.0826C330.861 53.1213 330.465 52.3931 329.673 51.8979ZM329.673 51.8979C328.971 51.4901 327.694 51.2862 325.824 51.2862H324.023L323.221 57.8013H324.636C326.714 57.8013 328.189 57.5974 329.05 57.1896C330.247 56.6265 330.851 55.5875 330.851 54.0826C330.861 53.1213 330.465 52.3931 329.673 51.8979ZM329.634 100.368C328.951 99.8822 327.763 99.6395 326.061 99.6395H324.517L323.577 107.193H324.943C328.753 107.193 330.653 105.747 330.653 102.863C330.653 101.688 330.307 100.853 329.634 100.368ZM175.856 103.785C174.441 102.29 172.709 101.533 170.631 101.533C168.365 101.533 166.425 102.368 164.832 104.028C163.238 105.688 162.437 107.698 162.437 110.058C162.437 112.339 163.14 114.213 164.525 115.699C165.901 117.185 167.642 117.913 169.76 117.913C172.125 117.913 174.075 117.087 175.629 115.447C177.182 113.815 177.954 111.747 177.954 109.262C177.964 107.116 177.261 105.281 175.856 103.785ZM175.856 103.785C174.441 102.29 172.709 101.533 170.631 101.533C168.365 101.533 166.425 102.368 164.832 104.028C163.238 105.688 162.437 107.698 162.437 110.058C162.437 112.339 163.14 114.213 164.525 115.699C165.901 117.185 167.642 117.913 169.76 117.913C172.125 117.913 174.075 117.087 175.629 115.447C177.182 113.815 177.954 111.747 177.954 109.262C177.964 107.116 177.261 105.281 175.856 103.785ZM200.805 163.159L199.815 170.839C199.528 173.305 198.964 175.276 198.133 176.752C197.262 178.247 196.094 179.383 194.649 180.151V180.335H206.129L208.247 163.159H200.805ZM329.634 100.368C328.951 99.8822 327.763 99.6395 326.061 99.6395H324.517L323.577 107.193H324.943C328.753 107.193 330.653 105.747 330.653 102.863C330.653 101.688 330.307 100.853 329.634 100.368ZM329.673 51.8979C328.971 51.4901 327.694 51.2862 325.824 51.2862H324.023L323.221 57.8013H324.636C326.714 57.8013 328.189 57.5974 329.05 57.1896C330.247 56.6265 330.851 55.5875 330.851 54.0826C330.861 53.1213 330.465 52.3931 329.673 51.8979ZM329.673 51.8979C328.971 51.4901 327.694 51.2862 325.824 51.2862H324.023L323.221 57.8013H324.636C326.714 57.8013 328.189 57.5974 329.05 57.1896C330.247 56.6265 330.851 55.5875 330.851 54.0826C330.861 53.1213 330.465 52.3931 329.673 51.8979ZM329.634 100.368C328.951 99.8822 327.763 99.6395 326.061 99.6395H324.517L323.577 107.193H324.943C328.753 107.193 330.653 105.747 330.653 102.863C330.653 101.688 330.307 100.853 329.634 100.368ZM200.805 163.159L199.815 170.839C199.528 173.305 198.964 175.276 198.133 176.752C197.262 178.247 196.094 179.383 194.649 180.151V180.335H206.129L208.247 163.159H200.805ZM175.856 103.785C174.441 102.29 172.709 101.533 170.631 101.533C168.365 101.533 166.425 102.368 164.832 104.028C163.238 105.688 162.437 107.698 162.437 110.058C162.437 112.339 163.14 114.213 164.525 115.699C165.901 117.185 167.642 117.913 169.76 117.913C172.125 117.913 174.075 117.087 175.629 115.447C177.182 113.815 177.954 111.747 177.954 109.262C177.964 107.116 177.261 105.281 175.856 103.785ZM151.254 166.14C149.849 164.644 148.107 163.887 146.039 163.887C143.753 163.887 141.813 164.722 140.24 166.382C138.646 168.053 137.845 170.062 137.845 172.412C137.845 174.694 138.528 176.568 139.923 178.053C141.308 179.539 143.06 180.267 145.178 180.267C147.533 180.267 149.493 179.461 151.036 177.811C152.59 176.16 153.372 174.102 153.372 171.616C153.372 169.47 152.659 167.635 151.254 166.14ZM175.856 103.785C174.441 102.29 172.709 101.533 170.631 101.533C168.365 101.533 166.425 102.368 164.832 104.028C163.238 105.688 162.437 107.698 162.437 110.058C162.437 112.339 163.14 114.213 164.525 115.699C165.901 117.185 167.642 117.913 169.76 117.913C172.125 117.913 174.075 117.087 175.629 115.447C177.182 113.815 177.954 111.747 177.954 109.262C177.964 107.116 177.261 105.281 175.856 103.785ZM200.805 163.159L199.815 170.839C199.528 173.305 198.964 175.276 198.133 176.752C197.262 178.247 196.094 179.383 194.649 180.151V180.335H206.129L208.247 163.159H200.805ZM329.634 100.368C328.951 99.8822 327.763 99.6395 326.061 99.6395H324.517L323.577 107.193H324.943C328.753 107.193 330.653 105.747 330.653 102.863C330.653 101.688 330.307 100.853 329.634 100.368ZM329.673 51.8979C328.971 51.4901 327.694 51.2862 325.824 51.2862H324.023L323.221 57.8013H324.636C326.714 57.8013 328.189 57.5974 329.05 57.1896C330.247 56.6265 330.851 55.5875 330.851 54.0826C330.861 53.1213 330.465 52.3931 329.673 51.8979ZM329.673 51.8979C328.971 51.4901 327.694 51.2862 325.824 51.2862H324.023L323.221 57.8013H324.636C326.714 57.8013 328.189 57.5974 329.05 57.1896C330.247 56.6265 330.851 55.5875 330.851 54.0826C330.861 53.1213 330.465 52.3931 329.673 51.8979ZM329.634 100.368C328.951 99.8822 327.763 99.6395 326.061 99.6395H324.517L323.577 107.193H324.943C328.753 107.193 330.653 105.747 330.653 102.863C330.653 101.688 330.307 100.853 329.634 100.368ZM200.805 163.159L199.815 170.839C199.528 173.305 198.964 175.276 198.133 176.752C197.262 178.247 196.094 179.383 194.649 180.151V180.335H206.129L208.247 163.159H200.805ZM175.856 103.785C174.441 102.29 172.709 101.533 170.631 101.533C168.365 101.533 166.425 102.368 164.832 104.028C163.238 105.688 162.437 107.698 162.437 110.058C162.437 112.339 163.14 114.213 164.525 115.699C165.901 117.185 167.642 117.913 169.76 117.913C172.125 117.913 174.075 117.087 175.629 115.447C177.182 113.815 177.954 111.747 177.954 109.262C177.964 107.116 177.261 105.281 175.856 103.785ZM151.254 166.14C149.849 164.644 148.107 163.887 146.039 163.887C143.753 163.887 141.813 164.722 140.24 166.382C138.646 168.053 137.845 170.062 137.845 172.412C137.845 174.694 138.528 176.568 139.923 178.053C141.308 179.539 143.06 180.267 145.178 180.267C147.533 180.267 149.493 179.461 151.036 177.811C152.59 176.16 153.372 174.102 153.372 171.616C153.372 169.47 152.659 167.635 151.254 166.14ZM151.254 166.14C149.849 164.644 148.107 163.887 146.039 163.887C143.753 163.887 141.813 164.722 140.24 166.382C138.646 168.053 137.845 170.062 137.845 172.412C137.845 174.694 138.528 176.568 139.923 178.053C141.308 179.539 143.06 180.267 145.178 180.267C147.533 180.267 149.493 179.461 151.036 177.811C152.59 176.16 153.372 174.102 153.372 171.616C153.372 169.47 152.659 167.635 151.254 166.14ZM175.856 103.785C174.441 102.29 172.709 101.533 170.631 101.533C168.365 101.533 166.425 102.368 164.832 104.028C163.238 105.688 162.437 107.698 162.437 110.058C162.437 112.339 163.14 114.213 164.525 115.699C165.901 117.185 167.642 117.913 169.76 117.913C172.125 117.913 174.075 117.087 175.629 115.447C177.182 113.815 177.954 111.747 177.954 109.262C177.964 107.116 177.261 105.281 175.856 103.785ZM200.805 163.159L199.815 170.839C199.528 173.305 198.964 175.276 198.133 176.752C197.262 178.247 196.094 179.383 194.649 180.151V180.335H206.129L208.247 163.159H200.805ZM329.634 100.368C328.951 99.8822 327.763 99.6395 326.061 99.6395H324.517L323.577 107.193H324.943C328.753 107.193 330.653 105.747 330.653 102.863C330.653 101.688 330.307 100.853 329.634 100.368ZM329.673 51.8979C328.971 51.4901 327.694 51.2862 325.824 51.2862H324.023L323.221 57.8013H324.636C326.714 57.8013 328.189 57.5974 329.05 57.1896C330.247 56.6265 330.851 55.5875 330.851 54.0826C330.861 53.1213 330.465 52.3931 329.673 51.8979ZM329.673 51.8979C328.971 51.4901 327.694 51.2862 325.824 51.2862H324.023L323.221 57.8013H324.636C326.714 57.8013 328.189 57.5974 329.05 57.1896C330.247 56.6265 330.851 55.5875 330.851 54.0826C330.861 53.1213 330.465 52.3931 329.673 51.8979ZM329.634 100.368C328.951 99.8822 327.763 99.6395 326.061 99.6395H324.517L323.577 107.193H324.943C328.753 107.193 330.653 105.747 330.653 102.863C330.653 101.688 330.307 100.853 329.634 100.368ZM200.805 163.159L199.815 170.839C199.528 173.305 198.964 175.276 198.133 176.752C197.262 178.247 196.094 179.383 194.649 180.151V180.335H206.129L208.247 163.159H200.805ZM175.856 103.785C174.441 102.29 172.709 101.533 170.631 101.533C168.365 101.533 166.425 102.368 164.832 104.028C163.238 105.688 162.437 107.698 162.437 110.058C162.437 112.339 163.14 114.213 164.525 115.699C165.901 117.185 167.642 117.913 169.76 117.913C172.125 117.913 174.075 117.087 175.629 115.447C177.182 113.815 177.954 111.747 177.954 109.262C177.964 107.116 177.261 105.281 175.856 103.785ZM151.254 166.14C149.849 164.644 148.107 163.887 146.039 163.887C143.753 163.887 141.813 164.722 140.24 166.382C138.646 168.053 137.845 170.062 137.845 172.412C137.845 174.694 138.528 176.568 139.923 178.053C141.308 179.539 143.06 180.267 145.178 180.267C147.533 180.267 149.493 179.461 151.036 177.811C152.59 176.16 153.372 174.102 153.372 171.616C153.372 169.47 152.659 167.635 151.254 166.14ZM151.254 166.14C149.849 164.644 148.107 163.887 146.039 163.887C143.753 163.887 141.813 164.722 140.24 166.382C138.646 168.053 137.845 170.062 137.845 172.412C137.845 174.694 138.528 176.568 139.923 178.053C141.308 179.539 143.06 180.267 145.178 180.267C147.533 180.267 149.493 179.461 151.036 177.811C152.59 176.16 153.372 174.102 153.372 171.616C153.372 169.47 152.659 167.635 151.254 166.14ZM175.856 103.785C174.441 102.29 172.709 101.533 170.631 101.533C168.365 101.533 166.425 102.368 164.832 104.028C163.238 105.688 162.437 107.698 162.437 110.058C162.437 112.339 163.14 114.213 164.525 115.699C165.901 117.185 167.642 117.913 169.76 117.913C172.125 117.913 174.075 117.087 175.629 115.447C177.182 113.815 177.954 111.747 177.954 109.262C177.964 107.116 177.261 105.281 175.856 103.785ZM200.805 163.159L199.815 170.839C199.528 173.305 198.964 175.276 198.133 176.752C197.262 178.247 196.094 179.383 194.649 180.151V180.335H206.129L208.247 163.159H200.805ZM329.634 100.368C328.951 99.8822 327.763 99.6395 326.061 99.6395H324.517L323.577 107.193H324.943C328.753 107.193 330.653 105.747 330.653 102.863C330.653 101.688 330.307 100.853 329.634 100.368ZM329.673 51.8979C328.971 51.4901 327.694 51.2862 325.824 51.2862H324.023L323.221 57.8013H324.636C326.714 57.8013 328.189 57.5974 329.05 57.1896C330.247 56.6265 330.851 55.5875 330.851 54.0826C330.861 53.1213 330.465 52.3931 329.673 51.8979ZM329.673 51.8979C328.971 51.4901 327.694 51.2862 325.824 51.2862H324.023L323.221 57.8013H324.636C326.714 57.8013 328.189 57.5974 329.05 57.1896C330.247 56.6265 330.851 55.5875 330.851 54.0826C330.861 53.1213 330.465 52.3931 329.673 51.8979ZM329.634 100.368C328.951 99.8822 327.763 99.6395 326.061 99.6395H324.517L323.577 107.193H324.943C328.753 107.193 330.653 105.747 330.653 102.863C330.653 101.688 330.307 100.853 329.634 100.368ZM200.805 163.159L199.815 170.839C199.528 173.305 198.964 175.276 198.133 176.752C197.262 178.247 196.094 179.383 194.649 180.151V180.335H206.129L208.247 163.159H200.805ZM175.856 103.785C174.441 102.29 172.709 101.533 170.631 101.533C168.365 101.533 166.425 102.368 164.832 104.028C163.238 105.688 162.437 107.698 162.437 110.058C162.437 112.339 163.14 114.213 164.525 115.699C165.901 117.185 167.642 117.913 169.76 117.913C172.125 117.913 174.075 117.087 175.629 115.447C177.182 113.815 177.954 111.747 177.954 109.262C177.964 107.116 177.261 105.281 175.856 103.785ZM151.254 166.14C149.849 164.644 148.107 163.887 146.039 163.887C143.753 163.887 141.813 164.722 140.24 166.382C138.646 168.053 137.845 170.062 137.845 172.412C137.845 174.694 138.528 176.568 139.923 178.053C141.308 179.539 143.06 180.267 145.178 180.267C147.533 180.267 149.493 179.461 151.036 177.811C152.59 176.16 153.372 174.102 153.372 171.616C153.372 169.47 152.659 167.635 151.254 166.14ZM24.5328 0.000732422L0 219.338H364.419L388.952 0.000732422H24.5328ZM273.136 26.6824L277.609 38.1396C278.233 39.7319 278.589 41.1981 278.668 42.5962H279.163C279.618 40.8388 280.153 39.3144 280.786 38.0231L286.367 26.6921H302.696L278.549 67.336H262.023L267.426 58.0149C268.455 56.2381 269.554 54.7525 270.712 53.5582L257.055 26.6921H273.136V26.6824ZM294.938 104.077L293.691 114.145H282.528L281.964 118.777H294.631L293.265 129.681H265.566L270.652 89.0367H297.857L296.551 99.6395H284.329L283.765 104.077H294.938ZM198.222 55.6749C198.885 55.9177 199.696 56.0439 200.646 56.0439C202.625 56.0439 204.169 55.5196 205.238 54.4612C206.396 53.3252 207.168 51.3542 207.534 48.5482L210.275 26.6727H247.406L242.319 67.3166H227.287L230.889 38.6154H222.448L220.765 51.7135C220.102 56.8304 218.341 60.7918 215.481 63.5881C212.492 66.5204 208.237 67.9768 202.695 67.9768C200.587 67.9768 198.637 67.8118 196.866 67.4914L198.222 55.6749ZM153.144 26.6824H168.167L166.801 37.2172C166.475 39.7028 166.029 42.0622 165.495 44.2857L165.93 44.4119C166.752 42.3438 167.622 40.6155 168.543 39.2271L169.958 36.9745L176.549 26.6824H194.055L177.905 47.2762L188.464 67.3263H172.63L167.345 55.6264C166.385 53.5097 165.683 51.529 165.228 49.6453L164.792 49.7133V50.927C164.792 52.5193 164.693 54.0729 164.485 55.6264L163.05 67.3263H148.028L153.144 26.6824ZM111.372 114.874L109.571 129.681H94.5487L99.6353 89.0367H114.658L112.926 102.931H121.744L123.495 89.0367H138.518L133.431 129.681H118.399L120.269 114.874H111.372ZM162.021 186.85C157.706 190.996 152.313 193.074 145.851 193.074C139.319 193.074 133.817 191.074 129.374 187.093C124.92 183.112 122.694 178.189 122.694 172.286C122.694 166.159 124.91 160.974 129.304 156.751C133.718 152.527 139.121 150.41 145.544 150.41C151.749 150.41 157.113 152.284 161.625 156.022C166.217 159.722 168.513 164.839 168.513 171.363C168.513 177.548 166.356 182.704 162.021 186.85ZM153.966 124.738C149.512 120.758 147.296 115.815 147.296 109.932C147.296 103.795 149.493 98.62 153.906 94.3963C158.31 90.1727 163.713 88.0561 170.136 88.0561C176.351 88.0561 181.715 89.93 186.218 93.6584C190.829 97.3577 193.125 102.484 193.125 109.019C193.125 115.204 190.948 120.35 186.633 124.496C182.299 128.642 176.905 130.72 170.463 130.72C163.911 130.72 158.409 128.719 153.966 124.738ZM223.418 200.123H210.74L211.73 192.025H188.019L187.029 200.123H174.362L176.836 180.083C179.409 180.121 181.497 179.393 183.11 177.878C184.862 176.218 186.049 172.713 186.712 167.344L188.711 151.381H224.536L220.934 180.083H225.901L223.418 200.123ZM222.418 129.681L220.805 116.825C220.765 116.699 220.656 115.689 220.488 113.776C220.36 112.281 220.31 111.068 220.31 110.116V109.33C220.31 108.223 220.35 107.213 220.439 106.281H219.944L219.815 107.203C219.4 110.495 218.816 113.689 218.083 116.825L215.025 129.681H199.815L211.859 89.0367H227.762L229.375 101.708C229.583 103.339 229.692 104.834 229.692 106.213C229.692 107.766 229.563 109.252 229.316 110.669H229.939C230.602 107.252 231.819 103.397 233.601 99.0957L237.767 89.0464H253.601L253.73 129.69H239.133L239.944 117.68C240.152 114.194 240.617 110.436 241.379 106.417L240.815 106.29L240.498 107.456C239.628 110.912 238.519 114.213 237.153 117.388L231.869 129.69H222.418V129.681ZM275.769 192.035H260.984L262.29 181.549C262.636 178.791 263.28 175.674 264.289 172.237L263.665 172.101C262.577 174.179 261.043 176.558 259.004 179.238L249.128 192.025H235.402L240.508 151.381H255.283L253.67 163.809C253.255 166.984 252.582 169.829 251.671 172.354L252.305 172.655C253.67 170.062 255.175 167.625 256.827 165.344L267.129 151.391H280.855L275.769 192.035ZM328.525 192.035H313.503L315.363 177.228H306.496L304.676 192.035H289.653L294.74 151.391H309.772L308.03 165.285H316.848L318.6 151.391H333.632L328.525 192.035ZM344.082 108.562C343.281 110.407 342.242 111.99 340.906 113.281C339.382 114.709 337.62 115.738 335.641 116.359C333.642 116.99 331.128 117.301 328.06 117.301H322.35L320.796 129.671H305.764L310.851 89.027H328.11C333.375 89.027 337.343 90.0659 340.035 92.134C343.518 94.8624 345.25 98.4646 345.25 102.931C345.25 104.834 344.864 106.708 344.082 108.562ZM340.173 64.3358C337.284 66.3165 332.979 67.3166 327.259 67.3166H307.575L312.662 26.6727H344.834L343.597 37.5182H325.774L325.151 42.1496H330.119C335.74 42.1496 339.787 43.2856 342.222 45.5673C344.3 47.5092 345.329 50.2376 345.329 53.733C345.329 58.481 343.607 62.0152 340.173 64.3358ZM329.673 51.8979C328.971 51.4901 327.694 51.2862 325.824 51.2862H324.023L323.221 57.8013H324.636C326.714 57.8013 328.189 57.5974 329.05 57.1896C330.247 56.6265 330.851 55.5875 330.851 54.0826C330.861 53.1213 330.465 52.3931 329.673 51.8979ZM329.634 100.368C328.951 99.8822 327.763 99.6395 326.061 99.6395H324.517L323.577 107.193H324.943C328.753 107.193 330.653 105.747 330.653 102.863C330.653 101.688 330.307 100.853 329.634 100.368ZM199.815 170.829C199.528 173.296 198.964 175.267 198.133 176.742C197.262 178.238 196.094 179.374 194.649 180.141V180.325H206.129L208.247 163.149H200.795L199.815 170.829ZM170.631 101.533C168.365 101.533 166.425 102.368 164.832 104.028C163.238 105.688 162.437 107.698 162.437 110.058C162.437 112.339 163.14 114.213 164.525 115.699C165.901 117.185 167.642 117.913 169.76 117.913C172.125 117.913 174.075 117.087 175.629 115.447C177.182 113.815 177.954 111.747 177.954 109.262C177.954 107.116 177.252 105.281 175.846 103.785C174.441 102.28 172.709 101.533 170.631 101.533ZM146.039 163.887C143.753 163.887 141.813 164.722 140.24 166.382C138.646 168.053 137.845 170.062 137.845 172.412C137.845 174.694 138.528 176.568 139.923 178.053C141.308 179.539 143.06 180.267 145.178 180.267C147.533 180.267 149.493 179.461 151.036 177.811C152.59 176.16 153.372 174.102 153.372 171.616C153.372 169.47 152.659 167.635 151.254 166.14C149.849 164.635 148.107 163.887 146.039 163.887ZM151.254 166.14C149.849 164.644 148.107 163.887 146.039 163.887C143.753 163.887 141.813 164.722 140.24 166.382C138.646 168.053 137.845 170.062 137.845 172.412C137.845 174.694 138.528 176.568 139.923 178.053C141.308 179.539 143.06 180.267 145.178 180.267C147.533 180.267 149.493 179.461 151.036 177.811C152.59 176.16 153.372 174.102 153.372 171.616C153.372 169.47 152.659 167.635 151.254 166.14ZM175.856 103.785C174.441 102.29 172.709 101.533 170.631 101.533C168.365 101.533 166.425 102.368 164.832 104.028C163.238 105.688 162.437 107.698 162.437 110.058C162.437 112.339 163.14 114.213 164.525 115.699C165.901 117.185 167.642 117.913 169.76 117.913C172.125 117.913 174.075 117.087 175.629 115.447C177.182 113.815 177.954 111.747 177.954 109.262C177.964 107.116 177.261 105.281 175.856 103.785ZM200.805 163.159L199.815 170.839C199.528 173.305 198.964 175.276 198.133 176.752C197.262 178.247 196.094 179.383 194.649 180.151V180.335H206.129L208.247 163.159H200.805ZM329.634 100.368C328.951 99.8822 327.763 99.6395 326.061 99.6395H324.517L323.577 107.193H324.943C328.753 107.193 330.653 105.747 330.653 102.863C330.653 101.688 330.307 100.853 329.634 100.368ZM329.673 51.8979C328.971 51.4901 327.694 51.2862 325.824 51.2862H324.023L323.221 57.8013H324.636C326.714 57.8013 328.189 57.5974 329.05 57.1896C330.247 56.6265 330.851 55.5875 330.851 54.0826C330.861 53.1213 330.465 52.3931 329.673 51.8979ZM329.673 51.8979C328.971 51.4901 327.694 51.2862 325.824 51.2862H324.023L323.221 57.8013H324.636C326.714 57.8013 328.189 57.5974 329.05 57.1896C330.247 56.6265 330.851 55.5875 330.851 54.0826C330.861 53.1213 330.465 52.3931 329.673 51.8979ZM329.634 100.368C328.951 99.8822 327.763 99.6395 326.061 99.6395H324.517L323.577 107.193H324.943C328.753 107.193 330.653 105.747 330.653 102.863C330.653 101.688 330.307 100.853 329.634 100.368ZM200.805 163.159L199.815 170.839C199.528 173.305 198.964 175.276 198.133 176.752C197.262 178.247 196.094 179.383 194.649 180.151V180.335H206.129L208.247 163.159H200.805ZM175.856 103.785C174.441 102.29 172.709 101.533 170.631 101.533C168.365 101.533 166.425 102.368 164.832 104.028C163.238 105.688 162.437 107.698 162.437 110.058C162.437 112.339 163.14 114.213 164.525 115.699C165.901 117.185 167.642 117.913 169.76 117.913C172.125 117.913 174.075 117.087 175.629 115.447C177.182 113.815 177.954 111.747 177.954 109.262C177.964 107.116 177.261 105.281 175.856 103.785ZM151.254 166.14C149.849 164.644 148.107 163.887 146.039 163.887C143.753 163.887 141.813 164.722 140.24 166.382C138.646 168.053 137.845 170.062 137.845 172.412C137.845 174.694 138.528 176.568 139.923 178.053C141.308 179.539 143.06 180.267 145.178 180.267C147.533 180.267 149.493 179.461 151.036 177.811C152.59 176.16 153.372 174.102 153.372 171.616C153.372 169.47 152.659 167.635 151.254 166.14ZM151.254 166.14C149.849 164.644 148.107 163.887 146.039 163.887C143.753 163.887 141.813 164.722 140.24 166.382C138.646 168.053 137.845 170.062 137.845 172.412C137.845 174.694 138.528 176.568 139.923 178.053C141.308 179.539 143.06 180.267 145.178 180.267C147.533 180.267 149.493 179.461 151.036 177.811C152.59 176.16 153.372 174.102 153.372 171.616C153.372 169.47 152.659 167.635 151.254 166.14ZM175.856 103.785C174.441 102.29 172.709 101.533 170.631 101.533C168.365 101.533 166.425 102.368 164.832 104.028C163.238 105.688 162.437 107.698 162.437 110.058C162.437 112.339 163.14 114.213 164.525 115.699C165.901 117.185 167.642 117.913 169.76 117.913C172.125 117.913 174.075 117.087 175.629 115.447C177.182 113.815 177.954 111.747 177.954 109.262C177.964 107.116 177.261 105.281 175.856 103.785ZM200.805 163.159L199.815 170.839C199.528 173.305 198.964 175.276 198.133 176.752C197.262 178.247 196.094 179.383 194.649 180.151V180.335H206.129L208.247 163.159H200.805ZM329.634 100.368C328.951 99.8822 327.763 99.6395 326.061 99.6395H324.517L323.577 107.193H324.943C328.753 107.193 330.653 105.747 330.653 102.863C330.653 101.688 330.307 100.853 329.634 100.368ZM329.673 51.8979C328.971 51.4901 327.694 51.2862 325.824 51.2862H324.023L323.221 57.8013H324.636C326.714 57.8013 328.189 57.5974 329.05 57.1896C330.247 56.6265 330.851 55.5875 330.851 54.0826C330.861 53.1213 330.465 52.3931 329.673 51.8979ZM329.673 51.8979C328.971 51.4901 327.694 51.2862 325.824 51.2862H324.023L323.221 57.8013H324.636C326.714 57.8013 328.189 57.5974 329.05 57.1896C330.247 56.6265 330.851 55.5875 330.851 54.0826C330.861 53.1213 330.465 52.3931 329.673 51.8979ZM329.634 100.368C328.951 99.8822 327.763 99.6395 326.061 99.6395H324.517L323.577 107.193H324.943C328.753 107.193 330.653 105.747 330.653 102.863C330.653 101.688 330.307 100.853 329.634 100.368ZM200.805 163.159L199.815 170.839C199.528 173.305 198.964 175.276 198.133 176.752C197.262 178.247 196.094 179.383 194.649 180.151V180.335H206.129L208.247 163.159H200.805ZM175.856 103.785C174.441 102.29 172.709 101.533 170.631 101.533C168.365 101.533 166.425 102.368 164.832 104.028C163.238 105.688 162.437 107.698 162.437 110.058C162.437 112.339 163.14 114.213 164.525 115.699C165.901 117.185 167.642 117.913 169.76 117.913C172.125 117.913 174.075 117.087 175.629 115.447C177.182 113.815 177.954 111.747 177.954 109.262C177.964 107.116 177.261 105.281 175.856 103.785ZM151.254 166.14C149.849 164.644 148.107 163.887 146.039 163.887C143.753 163.887 141.813 164.722 140.24 166.382C138.646 168.053 137.845 170.062 137.845 172.412C137.845 174.694 138.528 176.568 139.923 178.053C141.308 179.539 143.06 180.267 145.178 180.267C147.533 180.267 149.493 179.461 151.036 177.811C152.59 176.16 153.372 174.102 153.372 171.616C153.372 169.47 152.659 167.635 151.254 166.14ZM175.856 103.785C174.441 102.29 172.709 101.533 170.631 101.533C168.365 101.533 166.425 102.368 164.832 104.028C163.238 105.688 162.437 107.698 162.437 110.058C162.437 112.339 163.14 114.213 164.525 115.699C165.901 117.185 167.642 117.913 169.76 117.913C172.125 117.913 174.075 117.087 175.629 115.447C177.182 113.815 177.954 111.747 177.954 109.262C177.964 107.116 177.261 105.281 175.856 103.785ZM200.805 163.159L199.815 170.839C199.528 173.305 198.964 175.276 198.133 176.752C197.262 178.247 196.094 179.383 194.649 180.151V180.335H206.129L208.247 163.159H200.805ZM329.634 100.368C328.951 99.8822 327.763 99.6395 326.061 99.6395H324.517L323.577 107.193H324.943C328.753 107.193 330.653 105.747 330.653 102.863C330.653 101.688 330.307 100.853 329.634 100.368ZM329.673 51.8979C328.971 51.4901 327.694 51.2862 325.824 51.2862H324.023L323.221 57.8013H324.636C326.714 57.8013 328.189 57.5974 329.05 57.1896C330.247 56.6265 330.851 55.5875 330.851 54.0826C330.861 53.1213 330.465 52.3931 329.673 51.8979ZM329.673 51.8979C328.971 51.4901 327.694 51.2862 325.824 51.2862H324.023L323.221 57.8013H324.636C326.714 57.8013 328.189 57.5974 329.05 57.1896C330.247 56.6265 330.851 55.5875 330.851 54.0826C330.861 53.1213 330.465 52.3931 329.673 51.8979ZM329.634 100.368C328.951 99.8822 327.763 99.6395 326.061 99.6395H324.517L323.577 107.193H324.943C328.753 107.193 330.653 105.747 330.653 102.863C330.653 101.688 330.307 100.853 329.634 100.368ZM200.805 163.159L199.815 170.839C199.528 173.305 198.964 175.276 198.133 176.752C197.262 178.247 196.094 179.383 194.649 180.151V180.335H206.129L208.247 163.159H200.805ZM175.856 103.785C174.441 102.29 172.709 101.533 170.631 101.533C168.365 101.533 166.425 102.368 164.832 104.028C163.238 105.688 162.437 107.698 162.437 110.058C162.437 112.339 163.14 114.213 164.525 115.699C165.901 117.185 167.642 117.913 169.76 117.913C172.125 117.913 174.075 117.087 175.629 115.447C177.182 113.815 177.954 111.747 177.954 109.262C177.964 107.116 177.261 105.281 175.856 103.785ZM175.856 103.785C174.441 102.29 172.709 101.533 170.631 101.533C168.365 101.533 166.425 102.368 164.832 104.028C163.238 105.688 162.437 107.698 162.437 110.058C162.437 112.339 163.14 114.213 164.525 115.699C165.901 117.185 167.642 117.913 169.76 117.913C172.125 117.913 174.075 117.087 175.629 115.447C177.182 113.815 177.954 111.747 177.954 109.262C177.964 107.116 177.261 105.281 175.856 103.785ZM200.805 163.159L199.815 170.839C199.528 173.305 198.964 175.276 198.133 176.752C197.262 178.247 196.094 179.383 194.649 180.151V180.335H206.129L208.247 163.159H200.805ZM329.634 100.368C328.951 99.8822 327.763 99.6395 326.061 99.6395H324.517L323.577 107.193H324.943C328.753 107.193 330.653 105.747 330.653 102.863C330.653 101.688 330.307 100.853 329.634 100.368ZM329.673 51.8979C328.971 51.4901 327.694 51.2862 325.824 51.2862H324.023L323.221 57.8013H324.636C326.714 57.8013 328.189 57.5974 329.05 57.1896C330.247 56.6265 330.851 55.5875 330.851 54.0826C330.861 53.1213 330.465 52.3931 329.673 51.8979ZM329.673 51.8979C328.971 51.4901 327.694 51.2862 325.824 51.2862H324.023L323.221 57.8013H324.636C326.714 57.8013 328.189 57.5974 329.05 57.1896C330.247 56.6265 330.851 55.5875 330.851 54.0826C330.861 53.1213 330.465 52.3931 329.673 51.8979ZM329.634 100.368C328.951 99.8822 327.763 99.6395 326.061 99.6395H324.517L323.577 107.193H324.943C328.753 107.193 330.653 105.747 330.653 102.863C330.653 101.688 330.307 100.853 329.634 100.368ZM200.805 163.159L199.815 170.839C199.528 173.305 198.964 175.276 198.133 176.752C197.262 178.247 196.094 179.383 194.649 180.151V180.335H206.129L208.247 163.159H200.805ZM175.856 103.785C174.441 102.29 172.709 101.533 170.631 101.533C168.365 101.533 166.425 102.368 164.832 104.028C163.238 105.688 162.437 107.698 162.437 110.058C162.437 112.339 163.14 114.213 164.525 115.699C165.901 117.185 167.642 117.913 169.76 117.913C172.125 117.913 174.075 117.087 175.629 115.447C177.182 113.815 177.954 111.747 177.954 109.262C177.964 107.116 177.261 105.281 175.856 103.785ZM175.856 103.785C174.441 102.29 172.709 101.533 170.631 101.533C168.365 101.533 166.425 102.368 164.832 104.028C163.238 105.688 162.437 107.698 162.437 110.058C162.437 112.339 163.14 114.213 164.525 115.699C165.901 117.185 167.642 117.913 169.76 117.913C172.125 117.913 174.075 117.087 175.629 115.447C177.182 113.815 177.954 111.747 177.954 109.262C177.964 107.116 177.261 105.281 175.856 103.785ZM329.673 51.8979C328.971 51.4901 327.694 51.2862 325.824 51.2862H324.023L323.221 57.8013H324.636C326.714 57.8013 328.189 57.5974 329.05 57.1896C330.247 56.6265 330.851 55.5875 330.851 54.0826C330.861 53.1213 330.465 52.3931 329.673 51.8979ZM329.673 51.8979C328.971 51.4901 327.694 51.2862 325.824 51.2862H324.023L323.221 57.8013H324.636C326.714 57.8013 328.189 57.5974 329.05 57.1896C330.247 56.6265 330.851 55.5875 330.851 54.0826C330.861 53.1213 330.465 52.3931 329.673 51.8979ZM175.856 103.785C174.441 102.29 172.709 101.533 170.631 101.533C168.365 101.533 166.425 102.368 164.832 104.028C163.238 105.688 162.437 107.698 162.437 110.058C162.437 112.339 163.14 114.213 164.525 115.699C165.901 117.185 167.642 117.913 169.76 117.913C172.125 117.913 174.075 117.087 175.629 115.447C177.182 113.815 177.954 111.747 177.954 109.262C177.964 107.116 177.261 105.281 175.856 103.785ZM175.856 103.785C174.441 102.29 172.709 101.533 170.631 101.533C168.365 101.533 166.425 102.368 164.832 104.028C163.238 105.688 162.437 107.698 162.437 110.058C162.437 112.339 163.14 114.213 164.525 115.699C165.901 117.185 167.642 117.913 169.76 117.913C172.125 117.913 174.075 117.087 175.629 115.447C177.182 113.815 177.954 111.747 177.954 109.262C177.964 107.116 177.261 105.281 175.856 103.785ZM329.673 51.8979C328.971 51.4901 327.694 51.2862 325.824 51.2862H324.023L323.221 57.8013H324.636C326.714 57.8013 328.189 57.5974 329.05 57.1896C330.247 56.6265 330.851 55.5875 330.851 54.0826C330.861 53.1213 330.465 52.3931 329.673 51.8979ZM329.673 51.8979C328.971 51.4901 327.694 51.2862 325.824 51.2862H324.023L323.221 57.8013H324.636C326.714 57.8013 328.189 57.5974 329.05 57.1896C330.247 56.6265 330.851 55.5875 330.851 54.0826C330.861 53.1213 330.465 52.3931 329.673 51.8979ZM175.856 103.785C174.441 102.29 172.709 101.533 170.631 101.533C168.365 101.533 166.425 102.368 164.832 104.028C163.238 105.688 162.437 107.698 162.437 110.058C162.437 112.339 163.14 114.213 164.525 115.699C165.901 117.185 167.642 117.913 169.76 117.913C172.125 117.913 174.075 117.087 175.629 115.447C177.182 113.815 177.954 111.747 177.954 109.262C177.964 107.116 177.261 105.281 175.856 103.785ZM329.673 51.8979C328.971 51.4901 327.694 51.2862 325.824 51.2862H324.023L323.221 57.8013H324.636C326.714 57.8013 328.189 57.5974 329.05 57.1896C330.247 56.6265 330.851 55.5875 330.851 54.0826C330.861 53.1213 330.465 52.3931 329.673 51.8979ZM329.673 51.8979C328.971 51.4901 327.694 51.2862 325.824 51.2862H324.023L323.221 57.8013H324.636C326.714 57.8013 328.189 57.5974 329.05 57.1896C330.247 56.6265 330.851 55.5875 330.851 54.0826C330.861 53.1213 330.465 52.3931 329.673 51.8979Z" fill="#FFFDFD"/>
<path d="M897.538 124.611H888.79L885.781 148.769H889.205C896.905 148.769 902.476 147.691 905.89 145.506C909.324 143.351 911.017 139.593 911.017 134.282C911.017 127.854 906.534 124.611 897.538 124.611ZM902.268 75.0639H894.975L892.402 95.2111H896.895C902.466 95.2111 906.524 94.3858 909.077 92.7061C911.65 91.036 912.956 88.23 912.956 84.3171C912.966 78.1515 909.394 75.0639 902.268 75.0639ZM1003.18 197.403V197.413H1181.26V197.403H1003.18ZM1076.68 171.974H1121.64L1136.63 52.3826H1071.74L1067 90.7448L1086.91 89.3175L1076.68 171.974ZM897.538 124.611H888.79L885.781 148.769H889.205C896.905 148.769 902.476 147.691 905.89 145.506C909.324 143.351 911.017 139.593 911.017 134.282C911.017 127.854 906.534 124.611 897.538 124.611ZM902.268 75.0639H894.975L892.402 95.2111H896.895C902.466 95.2111 906.524 94.3858 909.077 92.7061C911.65 91.036 912.956 88.23 912.956 84.3171C912.966 78.1515 909.394 75.0639 902.268 75.0639ZM902.268 75.0639H894.975L892.402 95.2111H896.895C902.466 95.2111 906.524 94.3858 909.077 92.7061C911.65 91.036 912.956 88.23 912.956 84.3171C912.966 78.1515 909.394 75.0639 902.268 75.0639ZM897.538 124.611H888.79L885.781 148.769H889.205C896.905 148.769 902.476 147.691 905.89 145.506C909.324 143.351 911.017 139.593 911.017 134.282C911.017 127.854 906.534 124.611 897.538 124.611Z" fill="#FFFDFD"/>
<path d="M1003.19 197.403V197.413H1181.28V197.403H1003.19Z" fill="#FFFDFD"/>
<path d="M413.478 0L388.955 219.328H1204.68L1229.21 0H413.478ZM552.372 94.3859C543.099 87.1038 533.608 83.4821 523.92 83.4821C515.37 83.4821 507.967 86.5601 501.772 92.6965C495.557 98.8523 492.46 106.134 492.46 114.533C492.46 121.689 495.102 127.66 500.367 132.476C505.632 137.312 512.223 139.739 520.06 139.739C530.184 139.739 539.526 135.748 548.087 127.757L541.872 178.781C529.175 182.995 518.338 185.082 509.343 185.082C489.521 185.082 473.162 178.499 460.257 165.343C447.333 152.216 440.881 135.612 440.881 115.591C440.881 93.3276 448.372 74.8698 463.355 60.16C478.328 45.4792 497.091 38.1291 519.615 38.1291C532.035 38.1291 544.376 40.3138 556.627 44.6442L552.372 94.3859ZM660.844 181.509H564.544L582.08 41.4983H634.51L622.308 139.321L666.178 138.049L660.844 181.509ZM813.979 118.951C811.98 133.933 809.743 144.565 807.239 150.866C804.736 157.158 800.362 163.119 794.077 168.722C781.658 179.625 765.556 185.092 745.724 185.092C724.754 185.092 707.931 180.062 695.234 169.974C684.516 161.43 679.182 149.196 679.182 133.234C679.182 129.592 679.39 125.883 679.825 122.097L690.088 41.4983H742.518L732.889 118.951C732.176 124.553 731.8 127.99 731.8 129.243C731.8 137.923 736.095 142.263 744.646 142.263C749.505 142.263 753.216 140.603 755.789 137.312C758.342 134.03 760.203 128.544 761.331 120.835L771.187 41.4886H823.598L813.979 118.951ZM937.355 109.717C944.758 111.251 950.517 114.64 954.574 119.893C958.642 125.155 960.671 131.767 960.671 139.739C960.671 152.041 956.108 162.1 946.984 169.858C937.84 177.635 926.212 181.499 912.11 181.499H832.089L849.625 41.4886H913.624C935.851 41.4886 950.398 48.3435 957.266 62.0436C959.691 67.2382 960.908 72.2871 960.908 77.1807C960.908 85.4241 958.82 92.2984 954.693 97.7357C950.537 103.202 944.698 106.775 937.147 108.465L937.355 109.717ZM1181.26 197.404V197.413H1003.17V197.404L1023.44 21.9434H1201.53L1181.26 197.404Z" fill="#FFFDFD"/>
<path d="M1086.9 89.3175L1066.98 90.7448L1071.73 52.3826H1136.62L1121.62 171.974H1076.66L1086.9 89.3175Z" fill="#FFFDFD"/>
<path d="M1181.25 197.403H1003.17V197.413H1181.25V197.403Z" fill="#FFFDFD"/>
<path d="M1071.74 52.3826L1067 90.7448L1086.91 89.3175L1076.68 171.984H1121.64L1136.63 52.3923H1071.74V52.3826Z" fill="#FFFDFD"/>
</g>
<defs>
<clipPath id="clip0_4315_42">
<rect width="1229" height="219" fill="white"/>
</clipPath>
</defs>
</svg>
